<svg width="448" height="512" viewBox="0 0 448 512" fill="none" xmlns="http://www.w3.org/2000/svg">
<path d="M208 288C199.2 288 192 295.2 192 304V400C192 408.8 199.2 416 208 416C216.8 416 224 408.836 224 400V304C224 295.2 216.8 288 208 288ZM272 288C263.2 288 256 295.2 256 304V400C256 408.836 263.162 416 271.1 416C279.038 416 288 408.8 288 400L287.999 304C287.1 295.2 280.8 288 272 288ZM376.9 201.2C363.16 184.08 342.1 173.75 319.98 173.75H306.26C302.547 173.75 298.848 174.041 295.19 174.615C282.7 165.1 267.4 160 251.4 160H239.96V72C239.96 32.3 207.65 0 167.95 0C128.25 0 95.97 32.3 95.97 72V240.5C84.85 235.1 75.19 235.4 69.83 235.4C25.48 235.4 0 272.63 0 305.25C0 320.24 4.821 334.76 13.99 346.94L92.13 451.14C120.7 489.3 166.2 512 213.7 512H323.4C329.709 512 336.23 511.043 341.54 509.355C370.13 503.908 395.41 489.945 414.71 468.915C436.1 446.3 448 416.2 448 384.2V274.3C448 234.6 416.3 202.3 376.9 201.2ZM400 384.2C400 403.82 392.781 422.26 379.56 436.26C367.03 449.92 350.53 458.93 329.87 462.82C327.4 463.6 325.3 464 323.4 464H213.7C181.14 464 150.05 448.45 130.52 422.41L52.36 318.2C49.52 314.4 48.02 309.8 48.02 305.2C48.02 288.88 62.52 283.45 69.74 283.45C74.194 283.45 81.75 285 87.08 292.153L115.2 329.653C118.293 333.758 123.065 336.072 128 336.072C139.94 336.072 144.01 325.372 144.01 320.062V72C144.01 58.77 154.79 48 167.11 48C180.33 48 191.11 58.77 191.11 72V202.7C191.11 209.638 196.561 218.71 207.14 218.71C219.5 218.7 220.1 208 237.7 208H251.42C272.92 208 269.98 227.21 286.12 227.21C294.183 227.21 295.925 221.723 306.27 221.723H319.99C346.95 221.723 337.36 249.153 360.76 249.153L374.83 249.149C388.71 249.149 399.99 260.429 399.99 274.289V384.2H400ZM336 288C327.2 288 320 295.2 320 304V400C320 408.836 327.164 416 336 416C344.836 416 352 408.836 352 400V304C352 295.2 344.8 288 336 288Z" fill="url(#paint0_linear_304_3)"/>
<defs>
<linearGradient id="paint0_linear_304_3" x1="29" y1="35" x2="419" y2="477" gradientUnits="userSpaceOnUse">
<stop stop-color="#FF9580"/>
<stop offset="1" stop-color="#FFFF80"/>
</linearGradient>
</defs>
</svg>
