<svg width="470" height="512" viewBox="0 0 470 512" fill="none" xmlns="http://www.w3.org/2000/svg">
<path d="M405.574 403.384C405.534 402.939 405.464 402.504 405.397 402.067C405.358 401.814 405.329 401.561 405.282 401.31C405.201 400.885 405.094 400.47 404.988 400.054C404.922 399.793 404.863 399.53 404.787 399.271C404.672 398.883 404.535 398.505 404.399 398.126C404.298 397.844 404.204 397.561 404.09 397.283C403.95 396.939 403.79 396.606 403.632 396.271C403.491 395.97 403.355 395.668 403.199 395.372C403.038 395.067 402.858 394.774 402.682 394.478C402.501 394.172 402.325 393.863 402.127 393.564C401.938 393.279 401.731 393.01 401.529 392.735C401.317 392.446 401.113 392.154 400.885 391.873C400.656 391.591 400.406 391.328 400.163 391.058C399.96 390.833 399.775 390.598 399.561 390.379C399.531 390.349 399.498 390.324 399.469 390.294C399.253 390.076 399.018 389.879 398.792 389.671C394.703 385.889 389.5 383.985 384.282 383.998H299.006C287.224 383.998 277.673 393.549 277.673 405.331C277.673 417.113 287.224 426.664 299.006 426.664H319.399C293.056 440.438 264.271 447.987 234.999 447.987C128.957 447.987 42.999 362.029 42.999 255.987C42.999 226.573 49.612 198.128 62.168 172.271C67.314 161.672 62.895 148.908 52.296 143.762C41.697 138.616 28.933 143.035 23.787 153.634C8.42603 185.268 0.332031 220.081 0.332031 255.987C0.332031 385.593 105.393 490.654 234.999 490.654C280.643 490.654 324.85 476.034 363.005 450.236V490.665C363.005 502.447 372.556 511.998 384.338 511.998C396.12 511.998 405.671 502.447 405.671 490.665V405.332C405.671 404.927 405.633 404.532 405.61 404.133C405.598 403.884 405.596 403.634 405.574 403.384Z" fill="url(#paint0_linear_200_4)"/>
<path d="M235.001 21.325C189.379 21.325 145.168 35.952 107.005 61.747V21.333C107.005 9.551 97.4538 0 85.6718 0C73.8898 0 64.3388 9.551 64.3388 21.333V106.393C64.3378 106.44 64.3388 106.487 64.3388 106.534V106.666C64.3388 106.8 64.3568 106.93 64.3588 107.064C64.3688 107.613 64.3898 108.161 64.4418 108.709C64.4668 108.97 64.5118 109.224 64.5458 109.481C64.6028 109.909 64.6578 110.337 64.7408 110.762C64.8008 111.07 64.8808 111.37 64.9538 111.674C65.0428 112.043 65.1278 112.411 65.2368 112.775C65.3318 113.094 65.4458 113.403 65.5558 113.715C65.6758 114.057 65.7918 114.398 65.9288 114.735C66.0568 115.048 66.2028 115.351 66.3458 115.656C66.4958 115.979 66.6418 116.302 66.8098 116.618C66.9748 116.93 67.1578 117.229 67.3378 117.531C67.5108 117.823 67.6778 118.116 67.8668 118.401C68.0878 118.735 68.3278 119.052 68.5668 119.373C68.7418 119.607 68.9058 119.846 69.0918 120.075C69.4108 120.469 69.7538 120.842 70.0988 121.212C70.2158 121.337 70.3168 121.47 70.4368 121.593C70.4538 121.61 70.4728 121.625 70.4898 121.642C70.9508 122.109 71.4338 122.552 71.9358 122.975C71.9748 123.008 72.0118 123.047 72.0508 123.08C75.6528 126.072 80.2558 127.888 85.2828 127.979C85.3468 127.98 85.4098 127.988 85.4738 127.989C85.5408 127.99 85.6058 127.999 85.6728 127.999H171.006C182.788 127.999 192.339 118.448 192.339 106.666C192.339 94.884 182.788 85.333 171.006 85.333H150.59C176.945 71.549 205.739 63.991 235.002 63.991C341.036 63.991 427.002 149.963 427.002 255.991C427.002 285.455 420.385 313.92 407.814 339.786C402.664 350.383 407.08 363.148 417.677 368.298C428.274 373.448 441.039 369.032 446.189 358.435C461.57 326.786 469.668 291.949 469.668 255.99C469.668 126.4 364.6 21.325 235.001 21.325Z" fill="url(#paint1_linear_200_4)"/>
<defs>
<linearGradient id="paint0_linear_200_4" x1="203.002" y1="141.615" x2="203.002" y2="511.998" gradientUnits="userSpaceOnUse">
<stop stop-color="#80FFEA"/>
<stop offset="1" stop-color="#9580FF"/>
</linearGradient>
<linearGradient id="paint1_linear_200_4" x1="267.003" y1="0" x2="267.003" y2="370.449" gradientUnits="userSpaceOnUse">
<stop stop-color="#80FFEA"/>
<stop offset="1" stop-color="#9580FF"/>
</linearGradient>
</defs>
</svg>
